<svg xmlns="http://www.w3.org/2000/svg" viewBox="0 0 200 200" fill="none">
  <path d="M41.5,-69.9C53.4,-62.3,62.1,-50,68.4,-36.4C74.7,-22.8,78.6,-8,76.7,5.9C74.8,19.8,67.1,32.8,57.5,44.3C47.9,55.8,36.4,65.8,22.7,71.3C9,76.8,-6.9,77.8,-22.3,73.8C-37.7,69.8,-52.6,60.8,-62.4,48.3C-72.2,35.8,-76.9,19.8,-77.7,3.4C-78.5,-13,-75.4,-29.8,-66.8,-43.1C-58.2,-56.4,-44.1,-66.2,-29.4,-72.8C-14.7,-79.4,0.6,-82.8,14.7,-79.7C28.8,-76.6,29.6,-77.5,41.5,-69.9Z" transform="translate(100 100)" fill="currentColor"/>
</svg>