<svg xmlns="http://www.w3.org/2000/svg" viewBox="0 0 200 200" fill="none">
  <path d="M48.6,-77.5C61.6,-67.5,69.7,-51,73.4,-34.2C77.1,-17.4,76.4,-0.4,72.3,15C68.2,30.4,60.7,44.2,49.8,54.6C38.9,65,24.6,72,9.2,75.1C-6.2,78.2,-22.7,77.4,-37.4,71.5C-52.1,65.6,-65,54.6,-71.7,40.4C-78.4,26.2,-78.9,8.8,-75.4,-7.4C-71.9,-23.6,-64.4,-38.6,-53.4,-49.3C-42.4,-60,-27.9,-66.4,-13.4,-72.4C1.1,-78.4,15.6,-84,29.5,-81.9C43.4,-79.8,35.6,-87.5,48.6,-77.5Z" transform="translate(100 100)" fill="currentColor"/>
</svg>