<svg xmlns="http://www.w3.org/2000/svg" viewBox="0 0 200 200" fill="none">
  <path d="M55.3,-79.2C69.8,-70.5,78.3,-53.5,82.3,-36.2C86.3,-18.9,85.8,-1.4,81.4,14.7C77,30.8,68.7,45.5,56.5,55.6C44.3,65.7,28.2,71.2,11.6,73.8C-5,76.4,-22.1,76.1,-37.6,70.2C-53.1,64.3,-67,52.8,-74.2,38.1C-81.4,23.4,-81.9,5.5,-78.7,-11.4C-75.5,-28.3,-68.6,-44.2,-57.5,-54.6C-46.4,-65,-31.1,-69.9,-15.7,-74.5C-0.3,-79.1,15.2,-83.4,29.7,-81.7C44.2,-80,40.8,-87.9,55.3,-79.2Z" transform="translate(100 100)" fill="currentColor"/>
</svg>