<svg width="1280" height="640" viewBox="0 0 1280 640" fill="none" xmlns="http://www.w3.org/2000/svg" role="img" aria-labelledby="title desc">
  <title id="title">Page Forge repository cover</title>
  <desc id="desc">A preview graphic for a Vue landing page builder with editor panels, canvas and export features.</desc>
  <rect width="1280" height="640" fill="#f6f8fb"/>
  <rect x="44" y="42" width="1192" height="556" rx="22" fill="#eef2f7" stroke="#d8e0ea"/>
  <rect x="72" y="78" width="1136" height="62" rx="14" fill="#fbfcfe" stroke="#dce3ec"/>
  <circle cx="102" cy="109" r="8" fill="#ef4444"/>
  <circle cx="128" cy="109" r="8" fill="#f59e0b"/>
  <circle cx="154" cy="109" r="8" fill="#10b981"/>
  <text x="188" y="116" fill="#111827" font-family="Inter, Segoe UI, Arial, sans-serif" font-size="22" font-weight="700">Page Forge</text>
  <rect x="1014" y="94" width="78" height="30" rx="8" fill="#111827"/>
  <text x="1033" y="114" fill="#f8fafc" font-family="Inter, Segoe UI, Arial, sans-serif" font-size="13" font-weight="600">Export</text>
  <rect x="1104" y="94" width="78" height="30" rx="8" fill="#2563eb"/>
  <text x="1122" y="114" fill="#f8fafc" font-family="Inter, Segoe UI, Arial, sans-serif" font-size="13" font-weight="600">Add</text>

  <rect x="72" y="164" width="218" height="406" rx="16" fill="#fbfcfe" stroke="#dce3ec"/>
  <text x="98" y="200" fill="#111827" font-family="Inter, Segoe UI, Arial, sans-serif" font-size="18" font-weight="700">Blocks</text>
  <g font-family="Inter, Segoe UI, Arial, sans-serif" font-size="14" font-weight="600">
    <rect x="98" y="226" width="166" height="42" rx="10" fill="#eff6ff" stroke="#bfdbfe"/>
    <text x="120" y="253" fill="#1d4ed8">Hero</text>
    <rect x="98" y="282" width="166" height="42" rx="10" fill="#ffffff" stroke="#dce3ec"/>
    <text x="120" y="309" fill="#334155">Features</text>
    <rect x="98" y="338" width="166" height="42" rx="10" fill="#ffffff" stroke="#dce3ec"/>
    <text x="120" y="365" fill="#334155">Pricing</text>
    <rect x="98" y="394" width="166" height="42" rx="10" fill="#ffffff" stroke="#dce3ec"/>
    <text x="120" y="421" fill="#334155">Row</text>
    <rect x="98" y="450" width="166" height="42" rx="10" fill="#ffffff" stroke="#dce3ec"/>
    <text x="120" y="477" fill="#334155">Footer</text>
  </g>

  <rect x="314" y="164" width="626" height="406" rx="16" fill="#ffffff" stroke="#dce3ec"/>
  <rect x="348" y="198" width="558" height="122" rx="18" fill="#172033"/>
  <text x="382" y="244" fill="#f8fafc" font-family="Inter, Segoe UI, Arial, sans-serif" font-size="32" font-weight="800">Build landing pages visually</text>
  <text x="382" y="276" fill="#cbd5e1" font-family="Inter, Segoe UI, Arial, sans-serif" font-size="16">Drag blocks, edit content and export static HTML.</text>
  <rect x="382" y="294" width="112" height="34" rx="10" fill="#3b82f6"/>
  <text x="408" y="316" fill="#eff6ff" font-family="Inter, Segoe UI, Arial, sans-serif" font-size="13" font-weight="700">Get started</text>
  <rect x="348" y="346" width="168" height="82" rx="14" fill="#f8fafc" stroke="#e2e8f0"/>
  <rect x="542" y="346" width="168" height="82" rx="14" fill="#f8fafc" stroke="#e2e8f0"/>
  <rect x="736" y="346" width="170" height="82" rx="14" fill="#f8fafc" stroke="#e2e8f0"/>
  <g fill="#94a3b8">
    <rect x="374" y="378" width="94" height="10" rx="5"/>
    <rect x="374" y="398" width="116" height="8" rx="4"/>
    <rect x="568" y="378" width="94" height="10" rx="5"/>
    <rect x="568" y="398" width="116" height="8" rx="4"/>
    <rect x="762" y="378" width="94" height="10" rx="5"/>
    <rect x="762" y="398" width="116" height="8" rx="4"/>
  </g>
  <rect x="348" y="454" width="558" height="82" rx="14" fill="#f8fafc" stroke="#e2e8f0"/>
  <rect x="374" y="482" width="228" height="12" rx="6" fill="#334155"/>
  <rect x="374" y="506" width="384" height="10" rx="5" fill="#94a3b8"/>

  <rect x="964" y="164" width="244" height="406" rx="16" fill="#fbfcfe" stroke="#dce3ec"/>
  <text x="990" y="200" fill="#111827" font-family="Inter, Segoe UI, Arial, sans-serif" font-size="18" font-weight="700">Inspector</text>
  <text x="990" y="236" fill="#64748b" font-family="Inter, Segoe UI, Arial, sans-serif" font-size="13" font-weight="600">Title</text>
  <rect x="990" y="250" width="186" height="36" rx="9" fill="#ffffff" stroke="#dce3ec"/>
  <text x="1006" y="273" fill="#334155" font-family="Inter, Segoe UI, Arial, sans-serif" font-size="13">Launch faster</text>
  <text x="990" y="320" fill="#64748b" font-family="Inter, Segoe UI, Arial, sans-serif" font-size="13" font-weight="600">Style</text>
  <rect x="990" y="338" width="38" height="38" rx="9" fill="#2563eb"/>
  <rect x="1040" y="338" width="38" height="38" rx="9" fill="#0f766e"/>
  <rect x="1090" y="338" width="38" height="38" rx="9" fill="#7c3aed"/>
  <text x="990" y="414" fill="#64748b" font-family="Inter, Segoe UI, Arial, sans-serif" font-size="13" font-weight="600">Checks</text>
  <rect x="990" y="432" width="186" height="34" rx="9" fill="#ecfdf5" stroke="#bbf7d0"/>
  <text x="1010" y="454" fill="#047857" font-family="Inter, Segoe UI, Arial, sans-serif" font-size="13" font-weight="700">Safe to export</text>
  <rect x="990" y="482" width="186" height="34" rx="9" fill="#fff7ed" stroke="#fed7aa"/>
  <text x="1010" y="504" fill="#c2410c" font-family="Inter, Segoe UI, Arial, sans-serif" font-size="13" font-weight="700">SEO reminder</text>

  <text x="72" y="624" fill="#64748b" font-family="Inter, Segoe UI, Arial, sans-serif" font-size="15">Vue 3 · TypeScript · Pinia · SortableJS · Tailwind CSS · Static HTML Export</text>
</svg>
